<mxfile host="app.diagrams.net" modified="2023-11-02T05:47:58.144Z" agent="Mozilla/5.0 (Windows NT 10.0; Win64; x64) AppleWebKit/537.36 (KHTML, like Gecko) Chrome/118.0.0.0 Safari/537.36" etag="z8R9CDpZRebgGtaN0v97" version="22.0.8" type="device">
  <diagram name="Page-1" id="ctObIw_bZFSA20Tx5muz">
    <mxGraphModel dx="2950" dy="2238" grid="1" gridSize="10" guides="1" tooltips="1" connect="1" arrows="1" fold="1" page="1" pageScale="1" pageWidth="850" pageHeight="1100" math="0" shadow="0">
      <root>
        <mxCell id="0" />
        <mxCell id="1" parent="0" />
        <mxCell id="-nxSONLHJy2c07wi9Dpb-98" style="edgeStyle=orthogonalEdgeStyle;rounded=0;orthogonalLoop=1;jettySize=auto;html=1;exitX=1;exitY=0.5;exitDx=0;exitDy=0;entryX=0.985;entryY=0.19;entryDx=0;entryDy=0;entryPerimeter=0;" edge="1" parent="1" source="-nxSONLHJy2c07wi9Dpb-93" target="-nxSONLHJy2c07wi9Dpb-39">
          <mxGeometry relative="1" as="geometry">
            <Array as="points">
              <mxPoint x="1370" y="728" />
              <mxPoint x="1370" y="70" />
            </Array>
          </mxGeometry>
        </mxCell>
        <mxCell id="-nxSONLHJy2c07wi9Dpb-57" style="edgeStyle=orthogonalEdgeStyle;rounded=0;orthogonalLoop=1;jettySize=auto;html=1;exitX=0;exitY=0.5;exitDx=0;exitDy=0;entryX=0.75;entryY=0;entryDx=0;entryDy=0;" edge="1" parent="1" source="-nxSONLHJy2c07wi9Dpb-56" target="-nxSONLHJy2c07wi9Dpb-44">
          <mxGeometry relative="1" as="geometry">
            <Array as="points">
              <mxPoint x="590" y="340" />
              <mxPoint x="555" y="340" />
              <mxPoint x="555" y="250" />
              <mxPoint x="497" y="250" />
            </Array>
          </mxGeometry>
        </mxCell>
        <mxCell id="-nxSONLHJy2c07wi9Dpb-55" style="edgeStyle=orthogonalEdgeStyle;rounded=0;orthogonalLoop=1;jettySize=auto;html=1;exitX=0;exitY=0.5;exitDx=0;exitDy=0;entryX=0.75;entryY=0;entryDx=0;entryDy=0;" edge="1" parent="1" target="-nxSONLHJy2c07wi9Dpb-44">
          <mxGeometry relative="1" as="geometry">
            <mxPoint x="590" y="250" as="sourcePoint" />
            <mxPoint x="497.5" y="340" as="targetPoint" />
          </mxGeometry>
        </mxCell>
        <mxCell id="-nxSONLHJy2c07wi9Dpb-25" value="" style="endArrow=classic;html=1;rounded=0;exitX=0.5;exitY=0;exitDx=0;exitDy=0;entryX=0.75;entryY=1;entryDx=0;entryDy=0;" edge="1" parent="1" source="-nxSONLHJy2c07wi9Dpb-4" target="-nxSONLHJy2c07wi9Dpb-2">
          <mxGeometry width="50" height="50" relative="1" as="geometry">
            <mxPoint y="360" as="sourcePoint" />
            <mxPoint x="50" y="310" as="targetPoint" />
            <Array as="points">
              <mxPoint x="219" y="310" />
              <mxPoint x="269" y="310" />
            </Array>
          </mxGeometry>
        </mxCell>
        <mxCell id="-nxSONLHJy2c07wi9Dpb-26" value="&quot;Already have ...&quot;" style="edgeLabel;html=1;align=center;verticalAlign=middle;resizable=0;points=[];" vertex="1" connectable="0" parent="-nxSONLHJy2c07wi9Dpb-25">
          <mxGeometry x="-0.507" y="-2" relative="1" as="geometry">
            <mxPoint y="4" as="offset" />
          </mxGeometry>
        </mxCell>
        <mxCell id="-nxSONLHJy2c07wi9Dpb-1" value="User&lt;br&gt;" style="shape=umlActor;verticalLabelPosition=bottom;verticalAlign=top;html=1;outlineConnect=0;" vertex="1" parent="1">
          <mxGeometry x="20" y="150" width="30" height="60" as="geometry" />
        </mxCell>
        <mxCell id="-nxSONLHJy2c07wi9Dpb-31" style="edgeStyle=orthogonalEdgeStyle;rounded=0;orthogonalLoop=1;jettySize=auto;html=1;exitX=0.5;exitY=0;exitDx=0;exitDy=0;" edge="1" parent="1" source="-nxSONLHJy2c07wi9Dpb-2" target="-nxSONLHJy2c07wi9Dpb-30">
          <mxGeometry relative="1" as="geometry" />
        </mxCell>
        <mxCell id="-nxSONLHJy2c07wi9Dpb-33" value="&quot;Forgot your password?&quot;" style="edgeLabel;html=1;align=center;verticalAlign=middle;resizable=0;points=[];" vertex="1" connectable="0" parent="-nxSONLHJy2c07wi9Dpb-31">
          <mxGeometry x="-0.0539" y="1" relative="1" as="geometry">
            <mxPoint as="offset" />
          </mxGeometry>
        </mxCell>
        <mxCell id="-nxSONLHJy2c07wi9Dpb-45" style="edgeStyle=orthogonalEdgeStyle;rounded=0;orthogonalLoop=1;jettySize=auto;html=1;exitX=1;exitY=0.5;exitDx=0;exitDy=0;entryX=0;entryY=0.5;entryDx=0;entryDy=0;" edge="1" parent="1" source="-nxSONLHJy2c07wi9Dpb-2" target="-nxSONLHJy2c07wi9Dpb-3">
          <mxGeometry relative="1" as="geometry" />
        </mxCell>
        <mxCell id="-nxSONLHJy2c07wi9Dpb-46" value="Login &lt;br&gt;successfully" style="edgeLabel;html=1;align=center;verticalAlign=middle;resizable=0;points=[];" vertex="1" connectable="0" parent="-nxSONLHJy2c07wi9Dpb-45">
          <mxGeometry x="0.0018" y="-2" relative="1" as="geometry">
            <mxPoint as="offset" />
          </mxGeometry>
        </mxCell>
        <mxCell id="-nxSONLHJy2c07wi9Dpb-2" value="Login Activity" style="rounded=0;whiteSpace=wrap;html=1;strokeWidth=2;" vertex="1" parent="1">
          <mxGeometry x="119" y="160" width="200" height="40" as="geometry" />
        </mxCell>
        <mxCell id="-nxSONLHJy2c07wi9Dpb-47" style="edgeStyle=orthogonalEdgeStyle;rounded=0;orthogonalLoop=1;jettySize=auto;html=1;exitX=1;exitY=0.5;exitDx=0;exitDy=0;entryX=0;entryY=0.5;entryDx=0;entryDy=0;" edge="1" parent="1" source="-nxSONLHJy2c07wi9Dpb-3" target="-nxSONLHJy2c07wi9Dpb-49">
          <mxGeometry relative="1" as="geometry">
            <mxPoint x="610" y="180" as="targetPoint" />
          </mxGeometry>
        </mxCell>
        <mxCell id="-nxSONLHJy2c07wi9Dpb-48" value="Buy Cryptocurrencies" style="edgeLabel;html=1;align=center;verticalAlign=middle;resizable=0;points=[];" vertex="1" connectable="0" parent="-nxSONLHJy2c07wi9Dpb-47">
          <mxGeometry x="-0.1433" y="1" relative="1" as="geometry">
            <mxPoint as="offset" />
          </mxGeometry>
        </mxCell>
        <mxCell id="-nxSONLHJy2c07wi9Dpb-51" style="edgeStyle=orthogonalEdgeStyle;rounded=0;orthogonalLoop=1;jettySize=auto;html=1;exitX=0.75;exitY=1;exitDx=0;exitDy=0;entryX=0.75;entryY=0;entryDx=0;entryDy=0;" edge="1" parent="1" source="-nxSONLHJy2c07wi9Dpb-3" target="-nxSONLHJy2c07wi9Dpb-44">
          <mxGeometry relative="1" as="geometry">
            <Array as="points">
              <mxPoint x="498" y="200" />
              <mxPoint x="498" y="270" />
              <mxPoint x="497" y="270" />
            </Array>
          </mxGeometry>
        </mxCell>
        <mxCell id="-nxSONLHJy2c07wi9Dpb-53" value="Has" style="edgeLabel;html=1;align=center;verticalAlign=middle;resizable=0;points=[];" vertex="1" connectable="0" parent="-nxSONLHJy2c07wi9Dpb-51">
          <mxGeometry x="-0.0181" y="-1" relative="1" as="geometry">
            <mxPoint y="77" as="offset" />
          </mxGeometry>
        </mxCell>
        <mxCell id="-nxSONLHJy2c07wi9Dpb-3" value="Home Activity" style="rounded=0;whiteSpace=wrap;html=1;strokeWidth=2;" vertex="1" parent="1">
          <mxGeometry x="428" y="160" width="100" height="40" as="geometry" />
        </mxCell>
        <mxCell id="-nxSONLHJy2c07wi9Dpb-6" style="edgeStyle=orthogonalEdgeStyle;rounded=0;orthogonalLoop=1;jettySize=auto;html=1;exitX=0.75;exitY=0;exitDx=0;exitDy=0;entryX=0.75;entryY=1;entryDx=0;entryDy=0;" edge="1" parent="1" source="-nxSONLHJy2c07wi9Dpb-4" target="-nxSONLHJy2c07wi9Dpb-2">
          <mxGeometry relative="1" as="geometry" />
        </mxCell>
        <mxCell id="-nxSONLHJy2c07wi9Dpb-8" value="Signup &lt;br&gt;successfully" style="edgeLabel;html=1;align=center;verticalAlign=middle;resizable=0;points=[];" vertex="1" connectable="0" parent="-nxSONLHJy2c07wi9Dpb-6">
          <mxGeometry x="-0.0345" relative="1" as="geometry">
            <mxPoint y="115" as="offset" />
          </mxGeometry>
        </mxCell>
        <mxCell id="-nxSONLHJy2c07wi9Dpb-21" value="return to Login" style="edgeLabel;html=1;align=center;verticalAlign=middle;resizable=0;points=[];" vertex="1" connectable="0" parent="-nxSONLHJy2c07wi9Dpb-6">
          <mxGeometry x="0.7088" y="1" relative="1" as="geometry">
            <mxPoint as="offset" />
          </mxGeometry>
        </mxCell>
        <mxCell id="-nxSONLHJy2c07wi9Dpb-4" value="Signup Activity" style="rounded=0;whiteSpace=wrap;html=1;strokeWidth=2;" vertex="1" parent="1">
          <mxGeometry x="119" y="519" width="200" height="40" as="geometry" />
        </mxCell>
        <mxCell id="-nxSONLHJy2c07wi9Dpb-5" value="" style="endArrow=classic;html=1;rounded=0;exitX=0.25;exitY=1;exitDx=0;exitDy=0;entryX=0.25;entryY=0;entryDx=0;entryDy=0;" edge="1" parent="1" source="-nxSONLHJy2c07wi9Dpb-2" target="-nxSONLHJy2c07wi9Dpb-4">
          <mxGeometry width="50" height="50" relative="1" as="geometry">
            <mxPoint x="337" y="250" as="sourcePoint" />
            <mxPoint x="177" y="230" as="targetPoint" />
          </mxGeometry>
        </mxCell>
        <mxCell id="-nxSONLHJy2c07wi9Dpb-7" value="&quot;Don&#39;t have &lt;br&gt;an account ... &quot;" style="edgeLabel;html=1;align=center;verticalAlign=middle;resizable=0;points=[];" vertex="1" connectable="0" parent="-nxSONLHJy2c07wi9Dpb-5">
          <mxGeometry x="-0.0886" y="1" relative="1" as="geometry">
            <mxPoint x="-1" y="-69" as="offset" />
          </mxGeometry>
        </mxCell>
        <mxCell id="-nxSONLHJy2c07wi9Dpb-10" value="Firebase&#39;s &lt;br&gt;Firestore Database" style="rounded=1;whiteSpace=wrap;html=1;" vertex="1" parent="1">
          <mxGeometry x="-330" y="431" width="120" height="60" as="geometry" />
        </mxCell>
        <mxCell id="-nxSONLHJy2c07wi9Dpb-11" value="Firebase&#39;s Authentication" style="rounded=1;whiteSpace=wrap;html=1;" vertex="1" parent="1">
          <mxGeometry x="-330" y="80" width="120" height="60" as="geometry" />
        </mxCell>
        <mxCell id="-nxSONLHJy2c07wi9Dpb-71" style="edgeStyle=orthogonalEdgeStyle;rounded=0;orthogonalLoop=1;jettySize=auto;html=1;exitX=0;exitY=0.5;exitDx=0;exitDy=0;" edge="1" parent="1" source="-nxSONLHJy2c07wi9Dpb-12" target="-nxSONLHJy2c07wi9Dpb-56">
          <mxGeometry relative="1" as="geometry">
            <Array as="points">
              <mxPoint x="-181" y="401" />
              <mxPoint x="-390" y="400" />
              <mxPoint x="-390" y="610" />
              <mxPoint x="640" y="610" />
            </Array>
          </mxGeometry>
        </mxCell>
        <mxCell id="-nxSONLHJy2c07wi9Dpb-12" value="&quot;users&quot; collection" style="ellipse;whiteSpace=wrap;html=1;" vertex="1" parent="1">
          <mxGeometry x="-161" y="381" width="120" height="40" as="geometry" />
        </mxCell>
        <mxCell id="-nxSONLHJy2c07wi9Dpb-72" style="edgeStyle=orthogonalEdgeStyle;rounded=0;orthogonalLoop=1;jettySize=auto;html=1;exitX=0;exitY=0.5;exitDx=0;exitDy=0;" edge="1" parent="1" source="-nxSONLHJy2c07wi9Dpb-13" target="-nxSONLHJy2c07wi9Dpb-56">
          <mxGeometry relative="1" as="geometry">
            <Array as="points">
              <mxPoint x="-390" y="519" />
              <mxPoint x="-390" y="610" />
              <mxPoint x="640" y="610" />
            </Array>
          </mxGeometry>
        </mxCell>
        <mxCell id="-nxSONLHJy2c07wi9Dpb-74" value="Get" style="edgeLabel;html=1;align=center;verticalAlign=middle;resizable=0;points=[];" vertex="1" connectable="0" parent="-nxSONLHJy2c07wi9Dpb-72">
          <mxGeometry x="0.9164" relative="1" as="geometry">
            <mxPoint as="offset" />
          </mxGeometry>
        </mxCell>
        <mxCell id="-nxSONLHJy2c07wi9Dpb-13" value="&quot;transactions&quot; collection" style="ellipse;whiteSpace=wrap;html=1;" vertex="1" parent="1">
          <mxGeometry x="-161" y="499" width="120" height="40" as="geometry" />
        </mxCell>
        <mxCell id="-nxSONLHJy2c07wi9Dpb-14" value="&lt;font style=&quot;font-size: 10px;&quot;&gt;&quot;usersCryptoBalance&quot; collection&lt;/font&gt;" style="ellipse;whiteSpace=wrap;html=1;" vertex="1" parent="1">
          <mxGeometry x="-161" y="441" width="120" height="40" as="geometry" />
        </mxCell>
        <mxCell id="-nxSONLHJy2c07wi9Dpb-15" value="" style="endArrow=classic;html=1;rounded=0;" edge="1" parent="1" target="-nxSONLHJy2c07wi9Dpb-12">
          <mxGeometry width="50" height="50" relative="1" as="geometry">
            <mxPoint x="270" y="400" as="sourcePoint" />
            <mxPoint x="110" y="360" as="targetPoint" />
          </mxGeometry>
        </mxCell>
        <mxCell id="-nxSONLHJy2c07wi9Dpb-16" value="Add a new document" style="edgeLabel;html=1;align=center;verticalAlign=middle;resizable=0;points=[];" vertex="1" connectable="0" parent="-nxSONLHJy2c07wi9Dpb-15">
          <mxGeometry x="0.5233" y="1" relative="1" as="geometry">
            <mxPoint x="1" y="-1" as="offset" />
          </mxGeometry>
        </mxCell>
        <mxCell id="-nxSONLHJy2c07wi9Dpb-17" value="" style="endArrow=classic;html=1;rounded=0;" edge="1" parent="1" target="-nxSONLHJy2c07wi9Dpb-11">
          <mxGeometry width="50" height="50" relative="1" as="geometry">
            <mxPoint x="270" y="360" as="sourcePoint" />
            <mxPoint x="110" y="260" as="targetPoint" />
            <Array as="points">
              <mxPoint x="-270" y="360" />
            </Array>
          </mxGeometry>
        </mxCell>
        <mxCell id="-nxSONLHJy2c07wi9Dpb-27" value="create User (Email + Password)" style="edgeLabel;html=1;align=center;verticalAlign=middle;resizable=0;points=[];" vertex="1" connectable="0" parent="-nxSONLHJy2c07wi9Dpb-17">
          <mxGeometry x="0.6572" relative="1" as="geometry">
            <mxPoint as="offset" />
          </mxGeometry>
        </mxCell>
        <mxCell id="-nxSONLHJy2c07wi9Dpb-18" value="" style="endArrow=classic;html=1;rounded=0;" edge="1" parent="1" source="-nxSONLHJy2c07wi9Dpb-10" target="-nxSONLHJy2c07wi9Dpb-12">
          <mxGeometry width="50" height="50" relative="1" as="geometry">
            <mxPoint y="400" as="sourcePoint" />
            <mxPoint x="50" y="350" as="targetPoint" />
          </mxGeometry>
        </mxCell>
        <mxCell id="-nxSONLHJy2c07wi9Dpb-19" value="" style="endArrow=classic;html=1;rounded=0;" edge="1" parent="1" source="-nxSONLHJy2c07wi9Dpb-10" target="-nxSONLHJy2c07wi9Dpb-13">
          <mxGeometry width="50" height="50" relative="1" as="geometry">
            <mxPoint x="-200" y="449" as="sourcePoint" />
            <mxPoint x="-134" y="426" as="targetPoint" />
          </mxGeometry>
        </mxCell>
        <mxCell id="-nxSONLHJy2c07wi9Dpb-20" value="" style="endArrow=classic;html=1;rounded=0;" edge="1" parent="1" source="-nxSONLHJy2c07wi9Dpb-10" target="-nxSONLHJy2c07wi9Dpb-14">
          <mxGeometry width="50" height="50" relative="1" as="geometry">
            <mxPoint x="-190" y="459" as="sourcePoint" />
            <mxPoint x="-124" y="436" as="targetPoint" />
          </mxGeometry>
        </mxCell>
        <mxCell id="-nxSONLHJy2c07wi9Dpb-28" value="" style="endArrow=classic;html=1;rounded=0;" edge="1" parent="1" target="-nxSONLHJy2c07wi9Dpb-2">
          <mxGeometry width="50" height="50" relative="1" as="geometry">
            <mxPoint x="60" y="180" as="sourcePoint" />
            <mxPoint x="60" y="250" as="targetPoint" />
          </mxGeometry>
        </mxCell>
        <mxCell id="-nxSONLHJy2c07wi9Dpb-32" style="edgeStyle=orthogonalEdgeStyle;rounded=0;orthogonalLoop=1;jettySize=auto;html=1;exitX=0;exitY=0.5;exitDx=0;exitDy=0;" edge="1" parent="1" source="-nxSONLHJy2c07wi9Dpb-30" target="-nxSONLHJy2c07wi9Dpb-11">
          <mxGeometry relative="1" as="geometry" />
        </mxCell>
        <mxCell id="-nxSONLHJy2c07wi9Dpb-34" value="Request a resetting password email sending" style="edgeLabel;html=1;align=center;verticalAlign=middle;resizable=0;points=[];" vertex="1" connectable="0" parent="-nxSONLHJy2c07wi9Dpb-32">
          <mxGeometry x="0.1417" y="3" relative="1" as="geometry">
            <mxPoint x="27" y="-3" as="offset" />
          </mxGeometry>
        </mxCell>
        <mxCell id="-nxSONLHJy2c07wi9Dpb-30" value="Forgot Password Activity" style="rounded=0;whiteSpace=wrap;html=1;strokeWidth=2;" vertex="1" parent="1">
          <mxGeometry x="119" width="200" height="40" as="geometry" />
        </mxCell>
        <mxCell id="-nxSONLHJy2c07wi9Dpb-36" style="edgeStyle=orthogonalEdgeStyle;rounded=0;orthogonalLoop=1;jettySize=auto;html=1;exitX=0.5;exitY=1;exitDx=0;exitDy=0;" edge="1" parent="1" source="-nxSONLHJy2c07wi9Dpb-35" target="-nxSONLHJy2c07wi9Dpb-3">
          <mxGeometry relative="1" as="geometry" />
        </mxCell>
        <mxCell id="-nxSONLHJy2c07wi9Dpb-37" value="Get Cryptocurrencies data&lt;br&gt;(Using Retrofit)" style="edgeLabel;html=1;align=center;verticalAlign=middle;resizable=0;points=[];" vertex="1" connectable="0" parent="-nxSONLHJy2c07wi9Dpb-36">
          <mxGeometry x="-0.0401" y="1" relative="1" as="geometry">
            <mxPoint y="-50" as="offset" />
          </mxGeometry>
        </mxCell>
        <mxCell id="-nxSONLHJy2c07wi9Dpb-35" value="Cryptocurrency API (CoinMarketCap)" style="rhombus;whiteSpace=wrap;html=1;" vertex="1" parent="1">
          <mxGeometry x="398" y="-160" width="160" height="100" as="geometry" />
        </mxCell>
        <mxCell id="-nxSONLHJy2c07wi9Dpb-40" style="edgeStyle=orthogonalEdgeStyle;rounded=0;orthogonalLoop=1;jettySize=auto;html=1;exitX=0.5;exitY=1;exitDx=0;exitDy=0;" edge="1" parent="1" source="-nxSONLHJy2c07wi9Dpb-38" target="-nxSONLHJy2c07wi9Dpb-39">
          <mxGeometry relative="1" as="geometry" />
        </mxCell>
        <mxCell id="-nxSONLHJy2c07wi9Dpb-41" value="Get Exchange Rate (USD, EUR, AUD, VND) data&lt;br&gt;(Using Retrofit)" style="edgeLabel;html=1;align=center;verticalAlign=middle;resizable=0;points=[];" vertex="1" connectable="0" parent="-nxSONLHJy2c07wi9Dpb-40">
          <mxGeometry x="-0.028" y="-3" relative="1" as="geometry">
            <mxPoint as="offset" />
          </mxGeometry>
        </mxCell>
        <mxCell id="-nxSONLHJy2c07wi9Dpb-38" value="Cryptocurrency API (CoinMarketCap)" style="rhombus;whiteSpace=wrap;html=1;" vertex="1" parent="1">
          <mxGeometry x="630" y="-160" width="160" height="100" as="geometry" />
        </mxCell>
        <mxCell id="-nxSONLHJy2c07wi9Dpb-39" value="&amp;lt;Object&amp;gt;&lt;br&gt;Constants" style="rounded=0;whiteSpace=wrap;html=1;" vertex="1" parent="1">
          <mxGeometry x="650" y="59" width="120" height="60" as="geometry" />
        </mxCell>
        <mxCell id="-nxSONLHJy2c07wi9Dpb-42" value="" style="endArrow=classic;html=1;rounded=0;entryX=0.5;entryY=0;entryDx=0;entryDy=0;" edge="1" parent="1" target="-nxSONLHJy2c07wi9Dpb-39">
          <mxGeometry width="50" height="50" relative="1" as="geometry">
            <mxPoint x="480" y="30" as="sourcePoint" />
            <mxPoint x="710" y="63" as="targetPoint" />
            <Array as="points">
              <mxPoint x="710" y="30" />
            </Array>
          </mxGeometry>
        </mxCell>
        <mxCell id="-nxSONLHJy2c07wi9Dpb-43" value="Save" style="edgeLabel;html=1;align=center;verticalAlign=middle;resizable=0;points=[];" vertex="1" connectable="0" parent="-nxSONLHJy2c07wi9Dpb-42">
          <mxGeometry x="0.7776" y="-1" relative="1" as="geometry">
            <mxPoint x="1" y="7" as="offset" />
          </mxGeometry>
        </mxCell>
        <mxCell id="-nxSONLHJy2c07wi9Dpb-52" style="edgeStyle=orthogonalEdgeStyle;rounded=0;orthogonalLoop=1;jettySize=auto;html=1;exitX=0.25;exitY=0;exitDx=0;exitDy=0;entryX=0.25;entryY=1;entryDx=0;entryDy=0;" edge="1" parent="1" source="-nxSONLHJy2c07wi9Dpb-44" target="-nxSONLHJy2c07wi9Dpb-3">
          <mxGeometry relative="1" as="geometry" />
        </mxCell>
        <mxCell id="-nxSONLHJy2c07wi9Dpb-62" style="edgeStyle=orthogonalEdgeStyle;rounded=0;orthogonalLoop=1;jettySize=auto;html=1;exitX=0.25;exitY=0;exitDx=0;exitDy=0;entryX=0;entryY=0.75;entryDx=0;entryDy=0;" edge="1" parent="1" source="-nxSONLHJy2c07wi9Dpb-44" target="-nxSONLHJy2c07wi9Dpb-54">
          <mxGeometry relative="1" as="geometry" />
        </mxCell>
        <mxCell id="-nxSONLHJy2c07wi9Dpb-63" style="edgeStyle=orthogonalEdgeStyle;rounded=0;orthogonalLoop=1;jettySize=auto;html=1;exitX=0.25;exitY=0;exitDx=0;exitDy=0;entryX=0;entryY=0.75;entryDx=0;entryDy=0;" edge="1" parent="1" source="-nxSONLHJy2c07wi9Dpb-44" target="-nxSONLHJy2c07wi9Dpb-56">
          <mxGeometry relative="1" as="geometry">
            <Array as="points">
              <mxPoint x="453" y="360" />
              <mxPoint x="590" y="360" />
            </Array>
          </mxGeometry>
        </mxCell>
        <mxCell id="-nxSONLHJy2c07wi9Dpb-65" value="to" style="edgeLabel;html=1;align=center;verticalAlign=middle;resizable=0;points=[];" vertex="1" connectable="0" parent="-nxSONLHJy2c07wi9Dpb-63">
          <mxGeometry x="-0.6718" y="2" relative="1" as="geometry">
            <mxPoint x="1" as="offset" />
          </mxGeometry>
        </mxCell>
        <mxCell id="-nxSONLHJy2c07wi9Dpb-44" value="Navbar" style="rounded=0;whiteSpace=wrap;html=1;dashed=1;" vertex="1" parent="1">
          <mxGeometry x="430" y="412" width="90" height="50" as="geometry" />
        </mxCell>
        <mxCell id="-nxSONLHJy2c07wi9Dpb-68" style="edgeStyle=orthogonalEdgeStyle;rounded=0;orthogonalLoop=1;jettySize=auto;html=1;exitX=1;exitY=0.5;exitDx=0;exitDy=0;entryX=1;entryY=1;entryDx=0;entryDy=0;" edge="1" parent="1" source="-nxSONLHJy2c07wi9Dpb-49" target="-nxSONLHJy2c07wi9Dpb-12">
          <mxGeometry relative="1" as="geometry">
            <mxPoint y="460" as="targetPoint" />
            <Array as="points">
              <mxPoint x="1000" y="180" />
              <mxPoint x="1000" y="580" />
              <mxPoint y="580" />
              <mxPoint y="430" />
              <mxPoint x="-59" y="430" />
            </Array>
          </mxGeometry>
        </mxCell>
        <mxCell id="-nxSONLHJy2c07wi9Dpb-70" value="Update" style="edgeLabel;html=1;align=center;verticalAlign=middle;resizable=0;points=[];" vertex="1" connectable="0" parent="-nxSONLHJy2c07wi9Dpb-68">
          <mxGeometry x="-0.8927" y="-3" relative="1" as="geometry">
            <mxPoint as="offset" />
          </mxGeometry>
        </mxCell>
        <mxCell id="-nxSONLHJy2c07wi9Dpb-49" value="Trading Activity" style="rounded=0;whiteSpace=wrap;html=1;strokeWidth=2;" vertex="1" parent="1">
          <mxGeometry x="810" y="160" width="140" height="40" as="geometry" />
        </mxCell>
        <mxCell id="-nxSONLHJy2c07wi9Dpb-66" style="edgeStyle=orthogonalEdgeStyle;rounded=0;orthogonalLoop=1;jettySize=auto;html=1;exitX=1;exitY=0.5;exitDx=0;exitDy=0;" edge="1" parent="1" source="-nxSONLHJy2c07wi9Dpb-54" target="-nxSONLHJy2c07wi9Dpb-49">
          <mxGeometry relative="1" as="geometry" />
        </mxCell>
        <mxCell id="-nxSONLHJy2c07wi9Dpb-67" value="Sell cryptocurrencies" style="edgeLabel;html=1;align=center;verticalAlign=middle;resizable=0;points=[];" vertex="1" connectable="0" parent="-nxSONLHJy2c07wi9Dpb-66">
          <mxGeometry x="-0.2308" y="2" relative="1" as="geometry">
            <mxPoint as="offset" />
          </mxGeometry>
        </mxCell>
        <mxCell id="-nxSONLHJy2c07wi9Dpb-54" value="Wallet Activity" style="rounded=0;whiteSpace=wrap;html=1;strokeWidth=2;" vertex="1" parent="1">
          <mxGeometry x="590" y="239" width="100" height="40" as="geometry" />
        </mxCell>
        <mxCell id="-nxSONLHJy2c07wi9Dpb-56" value="Profile Activity" style="rounded=0;whiteSpace=wrap;html=1;strokeWidth=2;" vertex="1" parent="1">
          <mxGeometry x="590" y="331" width="100" height="40" as="geometry" />
        </mxCell>
        <mxCell id="-nxSONLHJy2c07wi9Dpb-69" value="" style="endArrow=classic;html=1;rounded=0;entryX=1;entryY=1;entryDx=0;entryDy=0;" edge="1" parent="1" target="-nxSONLHJy2c07wi9Dpb-14">
          <mxGeometry width="50" height="50" relative="1" as="geometry">
            <mxPoint y="580" as="sourcePoint" />
            <mxPoint x="130" y="470" as="targetPoint" />
            <Array as="points">
              <mxPoint y="490" />
              <mxPoint x="-60" y="490" />
            </Array>
          </mxGeometry>
        </mxCell>
        <mxCell id="-nxSONLHJy2c07wi9Dpb-76" style="edgeStyle=orthogonalEdgeStyle;rounded=0;orthogonalLoop=1;jettySize=auto;html=1;exitX=0;exitY=0.25;exitDx=0;exitDy=0;entryX=0.75;entryY=1;entryDx=0;entryDy=0;endArrow=none;endFill=0;startArrow=classic;startFill=1;" edge="1" parent="1" source="-nxSONLHJy2c07wi9Dpb-75" target="-nxSONLHJy2c07wi9Dpb-44">
          <mxGeometry relative="1" as="geometry" />
        </mxCell>
        <mxCell id="-nxSONLHJy2c07wi9Dpb-78" value="to" style="edgeLabel;html=1;align=center;verticalAlign=middle;resizable=0;points=[];" vertex="1" connectable="0" parent="-nxSONLHJy2c07wi9Dpb-76">
          <mxGeometry x="0.7221" y="-1" relative="1" as="geometry">
            <mxPoint as="offset" />
          </mxGeometry>
        </mxCell>
        <mxCell id="-nxSONLHJy2c07wi9Dpb-79" style="edgeStyle=orthogonalEdgeStyle;rounded=0;orthogonalLoop=1;jettySize=auto;html=1;exitX=0;exitY=0.75;exitDx=0;exitDy=0;entryX=0;entryY=1;entryDx=0;entryDy=0;" edge="1" parent="1" source="-nxSONLHJy2c07wi9Dpb-75" target="-nxSONLHJy2c07wi9Dpb-3">
          <mxGeometry relative="1" as="geometry">
            <Array as="points">
              <mxPoint x="410" y="690" />
              <mxPoint x="410" y="200" />
            </Array>
          </mxGeometry>
        </mxCell>
        <mxCell id="-nxSONLHJy2c07wi9Dpb-80" value="return" style="edgeLabel;html=1;align=center;verticalAlign=middle;resizable=0;points=[];" vertex="1" connectable="0" parent="-nxSONLHJy2c07wi9Dpb-79">
          <mxGeometry x="-0.5552" y="-2" relative="1" as="geometry">
            <mxPoint as="offset" />
          </mxGeometry>
        </mxCell>
        <mxCell id="-nxSONLHJy2c07wi9Dpb-81" style="edgeStyle=orthogonalEdgeStyle;rounded=0;orthogonalLoop=1;jettySize=auto;html=1;exitX=0.5;exitY=1;exitDx=0;exitDy=0;entryX=0;entryY=1;entryDx=0;entryDy=0;" edge="1" parent="1" source="-nxSONLHJy2c07wi9Dpb-75" target="-nxSONLHJy2c07wi9Dpb-2">
          <mxGeometry relative="1" as="geometry">
            <Array as="points">
              <mxPoint x="640" y="720" />
              <mxPoint x="90" y="720" />
              <mxPoint x="90" y="200" />
            </Array>
          </mxGeometry>
        </mxCell>
        <mxCell id="-nxSONLHJy2c07wi9Dpb-82" value="Logout" style="edgeLabel;html=1;align=center;verticalAlign=middle;resizable=0;points=[];" vertex="1" connectable="0" parent="-nxSONLHJy2c07wi9Dpb-81">
          <mxGeometry x="-0.5888" y="2" relative="1" as="geometry">
            <mxPoint x="1" as="offset" />
          </mxGeometry>
        </mxCell>
        <mxCell id="-nxSONLHJy2c07wi9Dpb-84" style="edgeStyle=orthogonalEdgeStyle;rounded=0;orthogonalLoop=1;jettySize=auto;html=1;exitX=1;exitY=0.5;exitDx=0;exitDy=0;" edge="1" parent="1" source="-nxSONLHJy2c07wi9Dpb-75" target="-nxSONLHJy2c07wi9Dpb-83">
          <mxGeometry relative="1" as="geometry" />
        </mxCell>
        <mxCell id="-nxSONLHJy2c07wi9Dpb-85" value="Has" style="edgeLabel;html=1;align=center;verticalAlign=middle;resizable=0;points=[];" vertex="1" connectable="0" parent="-nxSONLHJy2c07wi9Dpb-84">
          <mxGeometry x="-0.0556" y="-2" relative="1" as="geometry">
            <mxPoint as="offset" />
          </mxGeometry>
        </mxCell>
        <mxCell id="-nxSONLHJy2c07wi9Dpb-75" value="Settings Activity" style="rounded=0;whiteSpace=wrap;html=1;strokeWidth=2;" vertex="1" parent="1">
          <mxGeometry x="590" y="660" width="100" height="40" as="geometry" />
        </mxCell>
        <mxCell id="-nxSONLHJy2c07wi9Dpb-86" style="edgeStyle=orthogonalEdgeStyle;rounded=0;orthogonalLoop=1;jettySize=auto;html=1;exitX=1;exitY=0.5;exitDx=0;exitDy=0;" edge="1" parent="1" source="-nxSONLHJy2c07wi9Dpb-83" target="-nxSONLHJy2c07wi9Dpb-87">
          <mxGeometry relative="1" as="geometry">
            <mxPoint x="940" y="680" as="targetPoint" />
          </mxGeometry>
        </mxCell>
        <mxCell id="-nxSONLHJy2c07wi9Dpb-83" value="Fragment Container View" style="rounded=0;whiteSpace=wrap;html=1;strokeWidth=1;dashed=1;" vertex="1" parent="1">
          <mxGeometry x="750" y="660" width="130" height="40" as="geometry" />
        </mxCell>
        <mxCell id="-nxSONLHJy2c07wi9Dpb-91" style="edgeStyle=orthogonalEdgeStyle;rounded=0;orthogonalLoop=1;jettySize=auto;html=1;exitX=1;exitY=0.25;exitDx=0;exitDy=0;entryX=0;entryY=0.5;entryDx=0;entryDy=0;" edge="1" parent="1" source="-nxSONLHJy2c07wi9Dpb-87" target="-nxSONLHJy2c07wi9Dpb-90">
          <mxGeometry relative="1" as="geometry" />
        </mxCell>
        <mxCell id="-nxSONLHJy2c07wi9Dpb-92" value="Update &lt;br&gt;C-unit" style="edgeLabel;html=1;align=center;verticalAlign=middle;resizable=0;points=[];" vertex="1" connectable="0" parent="-nxSONLHJy2c07wi9Dpb-91">
          <mxGeometry x="0.1" relative="1" as="geometry">
            <mxPoint as="offset" />
          </mxGeometry>
        </mxCell>
        <mxCell id="-nxSONLHJy2c07wi9Dpb-94" style="edgeStyle=orthogonalEdgeStyle;rounded=0;orthogonalLoop=1;jettySize=auto;html=1;exitX=1;exitY=0.75;exitDx=0;exitDy=0;entryX=0;entryY=0.5;entryDx=0;entryDy=0;" edge="1" parent="1" source="-nxSONLHJy2c07wi9Dpb-87" target="-nxSONLHJy2c07wi9Dpb-93">
          <mxGeometry relative="1" as="geometry" />
        </mxCell>
        <mxCell id="-nxSONLHJy2c07wi9Dpb-95" value="Update&lt;br&gt;Avatar" style="edgeLabel;html=1;align=center;verticalAlign=middle;resizable=0;points=[];" vertex="1" connectable="0" parent="-nxSONLHJy2c07wi9Dpb-94">
          <mxGeometry x="0.0282" y="-2" relative="1" as="geometry">
            <mxPoint y="3" as="offset" />
          </mxGeometry>
        </mxCell>
        <mxCell id="-nxSONLHJy2c07wi9Dpb-87" value="Settings Fragment" style="rounded=0;whiteSpace=wrap;html=1;strokeWidth=2;" vertex="1" parent="1">
          <mxGeometry x="950" y="660" width="100" height="40" as="geometry" />
        </mxCell>
        <mxCell id="-nxSONLHJy2c07wi9Dpb-100" style="edgeStyle=orthogonalEdgeStyle;rounded=0;orthogonalLoop=1;jettySize=auto;html=1;exitX=1;exitY=0.5;exitDx=0;exitDy=0;entryX=1;entryY=0.75;entryDx=0;entryDy=0;" edge="1" parent="1" source="-nxSONLHJy2c07wi9Dpb-90" target="-nxSONLHJy2c07wi9Dpb-39">
          <mxGeometry relative="1" as="geometry" />
        </mxCell>
        <mxCell id="-nxSONLHJy2c07wi9Dpb-101" value="Update&lt;br&gt;Currency unit" style="edgeLabel;html=1;align=center;verticalAlign=middle;resizable=0;points=[];" vertex="1" connectable="0" parent="-nxSONLHJy2c07wi9Dpb-100">
          <mxGeometry x="-0.7542" y="3" relative="1" as="geometry">
            <mxPoint as="offset" />
          </mxGeometry>
        </mxCell>
        <mxCell id="-nxSONLHJy2c07wi9Dpb-90" value="Settings Currency Unit Fragment" style="rounded=0;whiteSpace=wrap;html=1;strokeWidth=2;" vertex="1" parent="1">
          <mxGeometry x="1130" y="600" width="100" height="40" as="geometry" />
        </mxCell>
        <mxCell id="-nxSONLHJy2c07wi9Dpb-96" style="edgeStyle=orthogonalEdgeStyle;rounded=0;orthogonalLoop=1;jettySize=auto;html=1;exitX=1;exitY=0.5;exitDx=0;exitDy=0;entryX=0;entryY=0;entryDx=0;entryDy=0;" edge="1" parent="1" source="-nxSONLHJy2c07wi9Dpb-93" target="-nxSONLHJy2c07wi9Dpb-12">
          <mxGeometry relative="1" as="geometry">
            <Array as="points">
              <mxPoint x="1370" y="728" />
              <mxPoint x="1370" y="780" />
              <mxPoint x="-440" y="780" />
              <mxPoint x="-440" y="387" />
            </Array>
          </mxGeometry>
        </mxCell>
        <mxCell id="-nxSONLHJy2c07wi9Dpb-97" value="update &quot;avatarID&quot;" style="edgeLabel;html=1;align=center;verticalAlign=middle;resizable=0;points=[];" vertex="1" connectable="0" parent="-nxSONLHJy2c07wi9Dpb-96">
          <mxGeometry x="-0.8752" relative="1" as="geometry">
            <mxPoint x="-70" y="-26" as="offset" />
          </mxGeometry>
        </mxCell>
        <mxCell id="-nxSONLHJy2c07wi9Dpb-93" value="Settings Avatar Fragment" style="rounded=0;whiteSpace=wrap;html=1;strokeWidth=2;" vertex="1" parent="1">
          <mxGeometry x="1130" y="708" width="100" height="40" as="geometry" />
        </mxCell>
        <mxCell id="-nxSONLHJy2c07wi9Dpb-102" value="" style="endArrow=classic;html=1;rounded=0;entryX=1;entryY=1;entryDx=0;entryDy=0;" edge="1" parent="1" target="-nxSONLHJy2c07wi9Dpb-13">
          <mxGeometry width="50" height="50" relative="1" as="geometry">
            <mxPoint y="580" as="sourcePoint" />
            <mxPoint x="-59" y="535" as="targetPoint" />
            <Array as="points">
              <mxPoint y="550" />
              <mxPoint x="-60" y="550" />
            </Array>
          </mxGeometry>
        </mxCell>
        <mxCell id="-nxSONLHJy2c07wi9Dpb-103" value="&lt;font style=&quot;font-size: 18px;&quot;&gt;&lt;b&gt;Architecture Diagram&amp;nbsp;&lt;/b&gt;&lt;/font&gt;" style="shape=umlFrame;whiteSpace=wrap;html=1;pointerEvents=0;width=420;height=60;" vertex="1" parent="1">
          <mxGeometry x="-540" y="-200" width="1970" height="1050" as="geometry" />
        </mxCell>
      </root>
    </mxGraphModel>
  </diagram>
</mxfile>
